<?xml version="1.0" standalone="no"?><!DOCTYPE svg PUBLIC "-//W3C//DTD SVG 1.1//EN" "http://www.w3.org/Graphics/SVG/1.1/DTD/svg11.dtd"><svg t="1500689404630" class="icon" style="" viewBox="0 0 1024 1024" version="1.1" xmlns="http://www.w3.org/2000/svg" p-id="22057" xmlns:xlink="http://www.w3.org/1999/xlink" width="64" height="64"><defs><style type="text/css"></style></defs><path d="M370.052 384.174c-0.101 78.483 65.901 143.757 144.566 142.988 78.684-0.749 143.919-65.212 143.919-142.198 0.020-77.309-65.252-141.41-144.141-141.552-79.404-0.161-144.233 63.049-144.343 140.763v0zM513.686 1009.769c-104.879-140.944-213.025-276.631-310.441-419.415-156.601-229.52-15.94-529.413 254.22-570.293 236.53-35.804 439.978 146.931 430.833 382.907-2.832 72.98-26.499 139.185-69.967 197.986-96.627 130.69-193.982 260.853-291.053 391.219-3.885 5.239-7.97 10.336-13.595 17.598v0zM513.686 1009.769z" p-id="22058" fill="#999999"></path></svg>