<?xml version="1.0" standalone="no"?><!DOCTYPE svg PUBLIC "-//W3C//DTD SVG 1.1//EN" "http://www.w3.org/Graphics/SVG/1.1/DTD/svg11.dtd"><svg t="1500686410718" class="icon" style="" viewBox="0 0 1025 1024" version="1.1" xmlns="http://www.w3.org/2000/svg" p-id="6325" xmlns:xlink="http://www.w3.org/1999/xlink" width="64.0625" height="64"><defs><style type="text/css"></style></defs><path d="M512 1024c-137.6 0-265.6-54.4-361.6-150.4-96-96-150.4-224-150.4-361.6 0-137.6 54.4-265.6 150.4-361.6 96-96 224-150.4 361.6-150.4s265.6 54.4 361.6 150.4c96 96 150.4 224 150.4 361.6 0 137.6-54.4 265.6-150.4 361.6C777.6 969.6 649.6 1024 512 1024L512 1024zM512 76.8c-118.4 0-227.2 44.8-310.4 128-83.2 83.2-128 192-128 307.2s44.8 227.2 128 307.2c83.2 83.2 192 128 310.4 128 118.4 0 227.2-44.8 310.4-128 83.2-83.2 128-192 128-307.2 0-115.2-44.8-227.2-128-307.2C739.2 121.6 630.4 76.8 512 76.8L512 76.8zM512 76.8" p-id="6326" fill="#aaaaaa"></path><path d="M768 476.8l-220.8 0L547.2 256c0-19.2-16-35.2-35.2-35.2-19.2 0-35.2 16-35.2 35.2l0 220.8L256 476.8c-19.2 0-35.2 16-35.2 35.2 0 19.2 16 35.2 35.2 35.2l220.8 0 0 220.8c0 19.2 16 35.2 35.2 35.2 19.2 0 35.2-16 35.2-35.2l0-220.8L768 547.2c19.2 0 35.2-16 35.2-35.2C803.2 492.8 787.2 476.8 768 476.8L768 476.8zM768 476.8" p-id="6327" fill="#aaaaaa"></path></svg>