<?xml version="1.0" standalone="no"?><!DOCTYPE svg PUBLIC "-//W3C//DTD SVG 1.1//EN" "http://www.w3.org/Graphics/SVG/1.1/DTD/svg11.dtd"><svg t="1500688618843" class="icon" style="" viewBox="0 0 1024 1024" version="1.1" xmlns="http://www.w3.org/2000/svg" p-id="15612" xmlns:xlink="http://www.w3.org/1999/xlink" width="64" height="64"><defs><style type="text/css"></style></defs><path d="M386.465 488.013c7.174 14.35 19.198 27.642 36.082 39.882 15.62-12.24 26.378-25.532 32.286-39.882h-68.368z" p-id="15613" fill="#FF840C"></path><path d="M791.267 256.49H228.55c-19.422 0-35.17 15.748-35.17 35.17v379.833c0 19.426 15.748 35.17 35.17 35.17h562.716c19.425 0 35.17-15.744 35.17-35.17V291.66c0-19.422-15.745-35.17-35.17-35.17zM614.36 385.67c6.47 8.724 13.086 18.994 19.838 30.809l-12.873 6.333c-6.47-11.533-13.367-21.734-20.675-30.602l13.71-6.54z m-28.905 97.068v-14.35h51.065c1.263-9.143 2.115-19.55 2.527-31.227h-46.42v-13.93h63.73c6.753-12.516 12.378-25.601 16.885-39.25l14.342 5.063c-4.643 12.804-9.918 24.2-15.826 34.187h27.435v13.93h-45.157c-0.426 13.368-1.195 23.775-2.322 31.227h54.65v14.35h-57.397c-5.908 25.463-24.475 46.565-55.709 63.305l-9.699-12.24c26.865-13.217 43.392-30.245 49.581-51.065h-47.685z m120.704 52.335l-10.551 11.396c-15.058-15.895-30.39-29.612-46.01-41.153l9.082-10.125c17.585 12.234 33.411 25.533 47.479 39.882zM536.918 388.624c14.913 11.259 27.147 22.16 36.722 32.711l-10.976 10.757c-8.587-10.407-20.608-21.59-36.084-33.549l10.338-9.919z m-95.59-3.166c14.769 11.258 27.36 22.867 37.773 34.82l-10.764 10.763c-8.58-10.833-20.965-22.716-37.134-35.664l10.125-9.92z m49.169 193.083c-27.01-9.988-49.375-20.752-67.104-32.285-17.028 11.953-38.478 22.998-64.36 33.13l-8.02-14.137c23.493-8.58 43.186-18.08 59.088-28.493-16.324-12.515-27.999-26.233-35.033-41.145-15.334 33.205-35.1 59.65-59.296 79.344l-7.807-13.93c30.667-26.865 53.386-63.862 68.158-110.99H323.79l16.671-58.67 14.982 2.535-12.028 41.571h36.928c4.22-16.595 7.597-33.83 10.129-51.703l15.403 1.903a566.845 566.845 0 0 1-9.915 49.8h98.753v14.563H391.95c-2.953 9.988-5.63 18.004-8.02 24.056h86.304v13.079c-5.77 18.291-17.228 34.75-34.386 49.381 17.014 10.125 37.834 19.412 62.453 27.854l-7.803 14.137z m217.77-3.586H660.37c-7.178 0-19.77-0.144-37.78-0.426-13.786-0.282-24.894-1.545-33.336-3.799-8.442-2.527-15.97-7.665-22.578-15.4-2.954-3.517-5.702-5.275-8.229-5.275-5.207 0-13.58 9.63-25.114 28.905l-11.396-10.125c11.259-17.73 21.171-28.486 29.75-32.285V472.4h-29.963v-13.93h44.107v78.925a42.796 42.796 0 0 1 5.276 4.85c5.062 6.051 10.55 10.482 16.458 13.298 6.752 2.954 16.383 4.637 28.912 5.063 14.906 0.281 28.836 0.419 41.777 0.419 6.334 0 16.39-0.138 30.176-0.42 11.397-0.281 19.2-0.563 23.424-0.844l-3.585 15.194z" p-id="15614" fill="#FF840C"></path></svg>