<?xml version="1.0" encoding="UTF-8" standalone="no"?>
<!DOCTYPE svg PUBLIC "-//W3C//DTD SVG 1.1//EN" "http://www.w3.org/Graphics/SVG/1.1/DTD/svg11.dtd">
<svg width="100%" height="100%" viewBox="0 0 39 38" version="1.1" xmlns="http://www.w3.org/2000/svg" xmlns:xlink="http://www.w3.org/1999/xlink" xml:space="preserve" style="fill-rule:evenodd;clip-rule:evenodd;stroke-linejoin:round;stroke-miterlimit:1.41421;">
    <g transform="matrix(1,0,0,1,-355,-1253)">
        <path id="形状-6" d="M368,1283L364,1283C360.378,1283 357,1279.55 357,1276L357,1262C357,1258.44 360.368,1255 364,1255L385,1255C388.63,1255 392,1258.45 392,1262L392,1277C392,1280.56 388.636,1283 385,1283L380,1283C379.7,1283 379.034,1282.84 378.826,1283.05L372.94,1289.06C372.52,1289.49 372.534,1290.17 372.972,1290.59C373.41,1291 374.106,1290.99 374.527,1290.56L380.413,1284.54L379.62,1284.87L385.233,1284.87C390.083,1284.87 394,1281.03 394,1276.28L394,1261.59C394,1256.85 390.074,1253 385.231,1253L363.769,1253C358.923,1253 355,1256.84 355,1261.59L355,1276.28C355,1281.03 358.92,1284.87 363.757,1284.87L368.245,1284.87C368.852,1284.87 369.344,1284.39 369.344,1283.8C369.344,1283.2 368.852,1282.72 368.245,1282.72L368,1283ZM365.095,1266L381.904,1266C382.509,1266 383,1265.55 383,1265C383,1264.45 382.509,1264 381.904,1264L365.095,1264C364.49,1264 364,1264.45 364,1265C364,1265.55 364.49,1266 365.095,1266L365.095,1266ZM365.093,1273L384.907,1273C385.511,1273 386,1272.55 386,1272C386,1271.45 385.511,1271 384.907,1271L365.093,1271C364.489,1271 364,1271.45 364,1272C364,1272.55 364.489,1273 365.093,1273L365.093,1273Z"/>
    </g>
</svg>
