<?xml version="1.0" standalone="no"?><!DOCTYPE svg PUBLIC "-//W3C//DTD SVG 1.1//EN" "http://www.w3.org/Graphics/SVG/1.1/DTD/svg11.dtd"><svg t="1500702067716" class="icon" style="" viewBox="0 0 1024 1024" version="1.1" xmlns="http://www.w3.org/2000/svg" p-id="2375" xmlns:xlink="http://www.w3.org/1999/xlink" width="64" height="64"><defs><style type="text/css"></style></defs><path d="M741.674425 957.297832l-0.019443 0-4.604878-0.102331c-107.162672-5.483898-251.886821-106.346073-387.17097-269.821285l-49.969065-60.35767c-135.289266-163.484422-206.1655-323.154981-189.591009-427.123914 11.69946-73.348542 120.751155-135.25038 183.062316-135.25038 30.693046 0 41.813315 15.273868 45.698808 24.391527 35.275411 62.690808 78.923514 171.708733 79.123059 210.804147l0.014326 2.786463-0.997724 2.598174c-7.78122 20.553105-25.186635 30.396287-40.547485 39.083134-20.22974 11.431354-31.728632 18.938328-33.131585 40.551578-0.419556 6.563486 5.238304 36.397978 94.493118 146.424884l38.156018 46.073338c89.502453 105.623619 117.662817 116.996644 124.255978 117.936039 21.578458 2.99931 31.743982-6.461155 47.26549-23.475667 11.81714-12.958126 25.220405-27.66099 47.345308-30.902824l2.798742-0.401136 2.755764 0.590448c38.977733 8.218172 138.740878 72.510454 195.379852 120.250758 8.17417 5.4225 22.446221 21.538549 11.144828 57.133232C889.409141 874.386494 812.132126 957.297832 741.674425 957.297832L741.674425 957.297832 741.674425 957.297832zM741.674425 957.297832" p-id="2376" fill="#178be5"></path></svg>