<?xml version="1.0" encoding="UTF-8" standalone="no"?><!DOCTYPE svg PUBLIC "-//W3C//DTD SVG 1.1//EN" "http://www.w3.org/Graphics/SVG/1.1/DTD/svg11.dtd"><svg width="100%" height="100%" viewBox="0 0 32 32" version="1.1" xmlns="http://www.w3.org/2000/svg" xmlns:xlink="http://www.w3.org/1999/xlink" xml:space="preserve" style="fill-rule:evenodd;clip-rule:evenodd;stroke-linejoin:round;stroke-miterlimit:1.41421;"><path id="形状-4" d="M24.75,19.993c-1.717,0 -3.242,0.825 -4.2,2.1l-8.25,-4.142c0.13,-0.458 0.2,-0.941 0.2,-1.442c0,-0.547 -0.084,-1.075 -0.239,-1.572l6.219,-4.126c0.953,1.33 2.51,2.196 4.27,2.196c2.9,0 5.25,-2.352 5.25,-5.253c0,-2.902 -2.35,-5.254 -5.25,-5.254c-2.899,0 -5.25,2.352 -5.25,5.254c0,0.2 0.012,0.398 0.033,0.593l-6.669,4.352c-0.941,-0.894 -2.213,-1.443 -3.614,-1.443c-2.9,0 -5.25,2.352 -5.25,5.253c0,2.902 2.35,5.254 5.25,5.254c1.452,0 2.766,-0.59 3.716,-1.542l8.583,4.308c-0.032,0.235 -0.049,0.474 -0.049,0.717c0,2.902 2.351,5.254 5.25,5.254c2.9,0 5.25,-2.352 5.25,-5.254c0,-2.901 -2.35,-5.253 -5.25,-5.253l0,0Z" /></svg>