<?xml version="1.0" encoding="UTF-8" standalone="no"?>
<!DOCTYPE svg PUBLIC "-//W3C//DTD SVG 1.1//EN" "http://www.w3.org/Graphics/SVG/1.1/DTD/svg11.dtd">
<svg width="100%" height="100%" viewBox="0 0 41 41" version="1.1" xmlns="http://www.w3.org/2000/svg" xmlns:xlink="http://www.w3.org/1999/xlink" xml:space="preserve" style="fill-rule:evenodd;clip-rule:evenodd;stroke-linejoin:round;stroke-miterlimit:1.41421;">
    <g transform="matrix(1,0,0,1,-105,-1252)">
        <path id="形状-7" d="M125,1252C114,1252 105,1261 105,1272C105,1283 114,1292 125,1292C129.2,1292 133.2,1290.7 136.6,1288.3C137,1288 137.2,1287.4 136.8,1286.9C136.5,1286.5 135.9,1286.3 135.4,1286.7C132.4,1288.8 128.8,1290 125,1290C115.1,1290 107,1281.9 107,1272C107,1262.1 115.1,1254 125,1254C134.9,1254 143,1262.1 143,1272C143,1275.8 141.8,1279.4 139.6,1282.5C139.3,1282.9 139.4,1283.6 139.8,1283.9C140.2,1284.2 140.9,1284.1 141.2,1283.7C143.7,1280.2 145,1276.2 145,1272C145,1261 136,1252 125,1252ZM134.5,1261.2C134.1,1261.3 124.1,1263.9 120.4,1267.5C116.8,1271.1 114.3,1281.2 114.1,1281.6C114,1282 114,1282.4 114.3,1282.7C114.5,1282.9 114.7,1283 115,1283C115.1,1283 115.2,1283 115.4,1282.9C115.8,1282.8 125.8,1280.2 129.5,1276.6C133.1,1273 135.6,1262.9 135.8,1262.5C135.9,1262.1 135.9,1261.7 135.6,1261.4C135.3,1261.1 134.9,1261 134.5,1261.2ZM128.1,1275.1C125.2,1278 118.3,1280 116,1281C117.3,1278.1 119.5,1271.1 121.8,1268.8C124.1,1266.5 131.1,1264.2 134,1263C132.6,1266.9 130.4,1272.8 128.1,1275.1ZM123,1272C123,1273.11 123.895,1274 125,1274C126.105,1274 127,1273.11 127,1272C127,1270.89 126.105,1270 125.001,1270C123.896,1270 123,1270.89 123,1272C123,1272 123,1272 123,1272Z"/>
    </g>
</svg>
