<?xml version="1.0" encoding="UTF-8" standalone="no"?><!DOCTYPE svg PUBLIC "-//W3C//DTD SVG 1.1//EN" "http://www.w3.org/Graphics/SVG/1.1/DTD/svg11.dtd"><svg width="100%" height="100%" viewBox="0 0 49 49" version="1.1" xmlns="http://www.w3.org/2000/svg" xmlns:xlink="http://www.w3.org/1999/xlink" xml:space="preserve" style="fill-rule:evenodd;clip-rule:evenodd;stroke-linejoin:round;stroke-miterlimit:1.41421;"><path d="M38.5,31l3.131,5.657l6.369,1.218l-4.433,4.715l0.804,6.41l-5.871,-2.743l-5.872,2.743l0.805,-6.41l-4.433,-4.715l6.369,-1.218l3.131,-5.657Zm-36.75,16.988l-1.75,0c0.195,-5.189 2.357,-10.04 6.139,-13.731c2.243,-2.188 4.902,-3.82 7.804,-4.827c-1.531,-0.741 -2.944,-1.727 -4.187,-2.94c-3.004,-2.931 -4.506,-6.64 -4.506,-10.785c0,-4.145 1.502,-8.229 4.506,-11.16c3.003,-2.931 6.997,-4.545 11.244,-4.545c4.248,0 8.241,1.614 11.244,4.545c2.93,2.859 4.431,6.815 4.503,10.855l-1.747,0c0,-0.036 0,-0.073 0,-0.109c0,-7.469 -6.281,-13.546 -14,-13.546c-7.72,0 -14,6.077 -14,13.546l0,0.414c0,6.71 5.675,12.527 12.866,13.088c0.376,-0.018 0.754,-0.027 1.134,-0.027c0.379,0 0.758,0.009 1.134,0.027c7.153,-0.558 12.806,-6.344 12.866,-13.393l1.747,0c0.002,0.101 0.003,0.204 0.003,0.305c0,4.145 -1.502,7.854 -4.506,10.785c-1.243,1.213 -2.656,2.199 -4.186,2.94c2.066,0.717 4.009,1.751 5.763,3.077l-1.575,0.945c-2.943,-1.967 -6.43,-2.698 -10.119,-2.914c-0.374,0.025 -0.749,0.039 -1.127,0.039c-0.378,0 -0.753,-0.014 -1.127,-0.039c-4.649,0.273 -8.982,1.358 -12.303,4.713c-3.391,3.426 -5.616,7.92 -5.82,12.737Zm21.29,-13.988c0.434,0.261 0.803,0.496 1.112,0.716c0.31,0.22 0.538,0.452 0.693,0.69c0.155,0.238 0.14,0.467 -0.046,0.688c-0.493,0.588 -0.911,1.055 -1.25,1.405c-0.339,0.349 -0.695,0.615 -1.067,0.8c0.187,0.366 0.403,0.863 0.649,1.486c0.247,0.625 0.48,1.266 0.696,1.929c0.215,0.661 0.416,1.257 0.601,1.789c0.186,0.532 0.279,0.908 0.279,1.129c0,0.183 -0.139,0.411 -0.418,0.687c-0.277,0.277 -0.617,0.534 -1.019,0.772c-0.401,0.238 -0.817,0.45 -1.25,0.634c-0.433,0.182 -0.803,0.275 -1.113,0.275c-0.307,0 -0.662,-0.093 -1.065,-0.272c-0.403,-0.184 -0.789,-0.411 -1.16,-0.688c-0.372,-0.276 -0.696,-0.543 -0.974,-0.8c-0.278,-0.257 -0.418,-0.478 -0.418,-0.662c0,-0.294 0.077,-0.725 0.232,-1.295c0.156,-0.567 0.339,-1.175 0.557,-1.817c0.217,-0.642 0.448,-1.267 0.696,-1.873c0.248,-0.605 0.433,-1.073 0.556,-1.404c-0.371,-0.222 -0.71,-0.523 -1.02,-0.91c-0.308,-0.385 -0.679,-0.835 -1.111,-1.349c-0.185,-0.185 -0.2,-0.386 -0.045,-0.607c0.153,-0.22 0.356,-0.423 0.602,-0.607c0.246,-0.218 0.583,-0.455 1.02,-0.716l4.263,0Z" /></svg>