<?xml version="1.0" encoding="UTF-8" standalone="no"?><!DOCTYPE svg PUBLIC "-//W3C//DTD SVG 1.1//EN" "http://www.w3.org/Graphics/SVG/1.1/DTD/svg11.dtd"><svg width="100%" height="100%" viewBox="0 0 80 80" version="1.1" xmlns="http://www.w3.org/2000/svg" xmlns:xlink="http://www.w3.org/1999/xlink" xml:space="preserve" style="fill-rule:evenodd;clip-rule:evenodd;stroke-linejoin:round;stroke-miterlimit:1.41421;"><circle id="椭圆-2" cx="40" cy="40" r="40" style="fill:#57ce28;"/><path id="eye" d="M40,58c-16,0 -24,-18 -24,-18c0,0 8,-18 24,-18c17,0 24,18 24,18c0,0 -8,18 -24,18Zm0,-34c-12.66,0 -20.033,12.632 -21.772,15.998c1.744,3.358 9.148,16.002 21.772,16.002c12.72,0 20.103,-12.752 21.796,-16.045c-1.535,-3.286 -8.33,-15.955 -21.796,-15.955Zm0,22c-3.314,0 -6,-2.687 -6,-6c0,-0.479 0.063,-0.943 0.168,-1.391c0.387,0.244 0.841,0.391 1.332,0.391c1.381,0 2.5,-1.119 2.5,-2.5c0,-0.715 -0.304,-1.356 -0.785,-1.812c0.832,-0.438 1.779,-0.688 2.785,-0.688c3.313,0 6,2.686 6,6c0,3.313 -2.687,6 -6,6Zm0,-10c-0.009,0 -0.019,0 -0.028,0c0.018,0.166 0.028,0.332 0.028,0.5c0,2.273 -1.693,4.157 -3.884,4.458c0.43,1.744 2.008,3.042 3.884,3.042c2.206,0 4,-1.794 4,-4c0,-2.206 -1.794,-4 -4,-4Z" style="fill:#fff;"/></svg>