<?xml version="1.0" encoding="UTF-8" standalone="no"?><!DOCTYPE svg PUBLIC "-//W3C//DTD SVG 1.1//EN" "http://www.w3.org/Graphics/SVG/1.1/DTD/svg11.dtd"><svg width="100%" height="100%" viewBox="0 0 5 6" version="1.1" xmlns="http://www.w3.org/2000/svg" xmlns:xlink="http://www.w3.org/1999/xlink" xml:space="preserve" style="fill-rule:evenodd;clip-rule:evenodd;stroke-linejoin:round;stroke-miterlimit:1.41421;"><path id="形状-3" d="M0.374,2.994c0.005,-0.008 0.011,-0.017 0.017,-0.025l2.124,-2.696c0.239,-0.304 0.69,-0.363 1.005,-0.132l0.732,0.535c0.315,0.231 0.377,0.665 0.138,0.969l-2.133,2.708c-0.006,0.006 -0.011,0.012 -0.017,0.018c-0.022,0.037 -0.057,0.066 -0.099,0.083l-1.851,0.741c-0.026,0.01 -0.053,0.016 -0.08,0.016c-0.047,0 -0.093,-0.015 -0.13,-0.044c-0.06,-0.045 -0.089,-0.118 -0.077,-0.19l0.31,-1.869c0.007,-0.044 0.029,-0.084 0.061,-0.114Zm0.297,0.511l-0.195,1.178l1.167,-0.467l-0.972,-0.711l0,0Zm0.142,-0.404l1.207,0.884l1.673,-2.124l-1.207,-0.884l-1.673,2.124Zm3.065,-1.474l0.178,-0.226c0.099,-0.126 0.074,-0.307 -0.058,-0.403l-0.731,-0.536c-0.131,-0.096 -0.319,-0.071 -0.418,0.055l-0.179,0.227l1.208,0.883Z" style="fill:#ff850b;"/></svg>