<?xml version="1.0" encoding="UTF-8" standalone="no"?><!DOCTYPE svg PUBLIC "-//W3C//DTD SVG 1.1//EN" "http://www.w3.org/Graphics/SVG/1.1/DTD/svg11.dtd"><svg width="100%" height="100%" viewBox="0 0 32 32" version="1.1" xmlns="http://www.w3.org/2000/svg" xmlns:xlink="http://www.w3.org/1999/xlink" xml:space="preserve" style="fill-rule:evenodd;clip-rule:evenodd;stroke-linejoin:round;stroke-miterlimit:1.41421;"><path id="形状-5" d="M24.248,11.251c-1.666,1.754 -3.285,3.551 -3.285,3.551c-0.817,0.889 -2.18,0.928 -3.043,0.087c-0.864,-0.841 -0.902,-2.243 -0.085,-3.133c0,0 3.292,-3.467 5.54,-5.781c1.383,-1.424 -0.086,-2.52 -1.375,-2.52c-5.638,0 -18,0 -18,0c-1.427,0 -2,1.447 -2,2.961l0.007,21.549c0,1.511 0.889,2.49 2.305,2.49l20.015,0c1.416,0 1.673,-0.487 1.673,-2c0,0 0,-12.272 0,-17c-0.173,-1.867 -0.201,-1.801 -1.752,-0.204l0,0Zm-18.498,3.204l7.5,0c0.499,0 0.75,0.302 0.75,1c0,0.693 -0.248,1 -0.75,1l-7.5,0c-0.498,0 -0.75,-0.302 -0.75,-1c0,-0.693 0.248,-1 0.75,-1l0,0Zm16.467,10l-16.434,0c-0.52,0 -0.783,-0.302 -0.783,-1c0,-0.693 0.264,-1 0.783,-1l16.434,0c0.52,0 0.783,0.302 0.783,1c0,0.694 -0.263,1 -0.783,1l0,0Zm7.449,-21.644c-0.293,-0.311 -0.725,-0.356 -0.965,-0.099l-10.126,10.026c-0.242,0.257 -0.2,0.717 0.093,1.028c0.292,0.311 0.725,0.356 0.965,0.099l10.126,-10.027c0.241,-0.256 0.2,-0.716 -0.093,-1.027l0,0Z" /></svg>