<?xml version="1.0" encoding="UTF-8" standalone="no"?><!DOCTYPE svg PUBLIC "-//W3C//DTD SVG 1.1//EN" "http://www.w3.org/Graphics/SVG/1.1/DTD/svg11.dtd"><svg width="100%" height="100%" viewBox="0 0 32 32" version="1.1" xmlns="http://www.w3.org/2000/svg" xmlns:xlink="http://www.w3.org/1999/xlink" xml:space="preserve" style="fill-rule:evenodd;clip-rule:evenodd;stroke-linejoin:round;stroke-miterlimit:1.41421;"><path id="形状-6" d="M28.918,14.548l-2.232,-0.344c-0.595,-0.092 -1.217,-0.569 -1.383,-1.061c-0.164,-0.491 -0.481,-2.088 -0.125,-2.574l1.337,-1.822c0.356,-0.486 0.299,-1.232 -0.127,-1.657l-0.977,-0.978c-0.426,-0.426 -1.172,-0.483 -1.657,-0.126l-1.823,1.336c-0.486,0.357 -1.258,0.459 -1.715,0.229c-0.458,-0.231 -1.828,-1.142 -1.919,-1.736l-0.344,-2.232c-0.092,-0.596 -0.66,-1.083 -1.262,-1.083l-1.382,0c-0.602,0 -1.17,0.487 -1.262,1.082l-0.344,2.232c-0.091,0.595 -0.568,1.217 -1.06,1.383c-0.492,0.165 -2.088,0.482 -2.574,0.125l-1.822,-1.336c-0.486,-0.357 -1.232,-0.299 -1.658,0.126l-0.977,0.978c-0.427,0.426 -0.483,1.171 -0.127,1.657l1.337,1.822c0.356,0.486 0.459,1.258 0.229,1.716c-0.231,0.458 -1.142,1.827 -1.736,1.919l-2.232,0.344c-0.596,0.091 -1.083,0.659 -1.083,1.261l0,1.383c0,0.602 0.487,1.17 1.082,1.261l2.232,0.344c0.595,0.091 1.217,0.569 1.383,1.061c0.164,0.491 0.481,2.088 0.125,2.574l-1.337,1.822c-0.356,0.487 -0.299,1.232 0.127,1.657l0.977,0.978c0.426,0.426 1.172,0.484 1.658,0.127l1.822,-1.338c0.486,-0.355 1.258,-0.458 1.716,-0.228c0.458,0.23 1.827,1.141 1.918,1.736l0.344,2.232c0.092,0.595 0.659,1.082 1.262,1.082l1.382,0c0.602,0 1.17,-0.487 1.262,-1.082l0.344,-2.232c0.091,-0.596 0.568,-1.217 1.06,-1.382c0.492,-0.165 2.088,-0.482 2.574,-0.126l1.823,1.338c0.486,0.356 1.231,0.299 1.657,-0.127l0.977,-0.978c0.427,-0.425 0.483,-1.171 0.127,-1.657l-1.337,-1.822c-0.356,-0.486 -0.459,-1.258 -0.229,-1.715c0.231,-0.459 1.142,-1.829 1.736,-1.92l2.232,-0.344c0.596,-0.091 1.082,-0.659 1.082,-1.261l0,-1.383c0.001,-0.602 -0.486,-1.17 -1.081,-1.261l0,0Zm-12.918,7.952c-3.314,0 -6,-2.686 -6,-6c0,-3.314 2.686,-6 6,-6c3.314,0 6,2.686 6,6c0,3.314 -2.686,6 -6,6l0,0Z" /></svg>