<?xml version="1.0" standalone="no"?><!DOCTYPE svg PUBLIC "-//W3C//DTD SVG 1.1//EN" "http://www.w3.org/Graphics/SVG/1.1/DTD/svg11.dtd"><svg t="1500688955302" class="icon" style="" viewBox="0 0 1024 1024" version="1.1" xmlns="http://www.w3.org/2000/svg" p-id="16931" xmlns:xlink="http://www.w3.org/1999/xlink" width="64" height="64"><defs><style type="text/css"></style></defs><path d="M511.965869 1023.931738C229.20712 1023.931738 0 794.707553 0 511.965869 0 229.20712 229.20712 0 511.965869 0c282.741684 0 511.965869 229.20712 511.965869 511.965869 0 282.741684-229.224185 511.965869-511.965869 511.965869z m227.534698-553.827612v-24.676754c0-9.659089-0.102393-19.761883-0.290114-30.30838-0.204786-10.563562-0.30718-20.478635-0.30718-29.779348v-39.69442c0-7.150457-2.696354-13.140457-8.089061-17.970002-5.375642-4.829545-12.167722-8.498633-20.359176-11.007267a91.232318 91.232318 0 0 0-26.656356-3.754416c-9.590827 0-18.464902 1.348177-26.656356 4.027465-8.191454 2.679288-14.983534 6.621425-20.376242 11.809346-5.392707 5.170855-8.071995 11.706953-8.071995 19.574162v18.772082c0 10.017466 0.085328 21.724418 0.290114 35.137924 0.204786 13.413506 0.30718 27.270715 0.30718 41.571628v37.56123c0 9.300713-2.40624 18.05533-7.201654 26.280914a80.634624 80.634624 0 0 1-18.567295 21.724418c-7.577095 6.263049-15.973335 11.263249-25.15459 15.017666a72.357843 72.357843 0 0 1-27.560829 5.631625h-62.306246c-22.355843 0-42.527298 0.187721-60.497301 0.546096-7.986668 0-14.266782-0.80208-18.857409-2.423305-4.590627-1.60416-6.894474-5.80228-6.894474-12.59436 0-3.225385-0.102393-6.979801-0.307179-11.263249l-0.597294-13.413506c-0.187721-4.658889-0.392507-9.04473-0.597293-13.157523a212.75595 212.75595 0 0 1-0.290114-10.444103c0-9.659089-3.498433-15.393107-10.495301-17.167923-6.979801-1.791881-15.666156 1.245784-26.059062 9.112993-9.573762 7.150457-20.563962 15.205386-32.936471 24.147723-12.389574 8.942337-24.966869 18.05533-37.74895 27.356043-12.765016 9.300713-25.052197 18.328378-36.827412 27.082995-11.792281 8.754616-22.065729 16.365842-30.854476 22.799546-8.379175 6.433704-12.474902 12.526098-12.287181 18.243051 0.204786 5.716952 4.897807 11.792281 14.079061 18.24305 9.983334 7.150457 21.366042 15.188321 34.148124 24.130658a13054.634758 13054.634758 0 0 1 77.272715 54.456103c12.389574 8.754616 23.362709 16.365842 32.953536 22.799547 9.181255 6.433704 16.570629 8.310913 22.168123 5.631625 5.580428-2.679288 8.379175-8.669289 8.379174-17.970002 0-5.716952 0.102393-12.082395 0.290114-19.045131 0.204786-6.979801 0.30718-13.140457 0.30718-18.516099-0.392507-7.150457 2.798747-11.792281 9.590827-13.942537 6.775015-2.150257 15.973335-3.225385 27.543764-3.225385h28.158123c10.392907 0 20.871142-0.085328 31.451769-0.255983 10.580628-0.187721 20.461569-0.273048 29.65989-0.273048h23.362709c25.15459 0 49.012199-4.641824 71.572828-13.942537a203.216319 203.216319 0 0 0 59.609893-37.288181 181.065262 181.065262 0 0 0 40.735418-53.107926c9.983334-19.84721 14.966469-40.325845 14.966469-61.418839v-15.017666z" fill="#FF840C" p-id="16932"></path></svg>