<?xml version="1.0" standalone="no"?><!DOCTYPE svg PUBLIC "-//W3C//DTD SVG 1.1//EN" "http://www.w3.org/Graphics/SVG/1.1/DTD/svg11.dtd"><svg t="1500689300723" class="icon" style="" viewBox="0 0 1280 1024" version="1.1" xmlns="http://www.w3.org/2000/svg" p-id="20431" xmlns:xlink="http://www.w3.org/1999/xlink" width="80" height="64"><defs><style type="text/css"></style></defs><path d="M1152 0H128a128 128 0 0 0-128 128v768a128 128 0 0 0 128 128h1024a128 128 0 0 0 128-128V128a128 128 0 0 0-128-128z m-197.76 134.4a128 128 0 1 1-128 128 128 128 0 0 1 128-128zM1088 896H192V576l192-192 314.24 320L896 512l192 187.52z" fill="#999999" p-id="20432"></path></svg>