<?xml version="1.0" encoding="UTF-8" standalone="no"?><!DOCTYPE svg PUBLIC "-//W3C//DTD SVG 1.1//EN" "http://www.w3.org/Graphics/SVG/1.1/DTD/svg11.dtd"><svg width="100%" height="100%" viewBox="0 0 32 32" version="1.1" xmlns="http://www.w3.org/2000/svg" xmlns:xlink="http://www.w3.org/1999/xlink" xml:space="preserve" style="fill-rule:evenodd;clip-rule:evenodd;stroke-linejoin:round;stroke-miterlimit:1.41421;"><path id="形状-3" d="M25.231,30.5l-19.462,0c-0.977,0 -1.769,-0.836 -1.769,-1.867l0,-24.266c0,-1.032 0.792,-1.867 1.769,-1.867l19.462,0c0.977,0 1.769,0.835 1.769,1.867l0,24.266c0,1.031 -0.792,1.867 -1.769,1.867l0,0Zm-2.231,-20l-15,0l0,2l15,0l0,-2l0,0Zm0,6l-15,0l0,2l15,0l0,-2l0,0Zm0,6l-15,0l0,2l15,0l0,-2l0,0Z" /></svg>