<?xml version="1.0" encoding="UTF-8" standalone="no"?><!DOCTYPE svg PUBLIC "-//W3C//DTD SVG 1.1//EN" "http://www.w3.org/Graphics/SVG/1.1/DTD/svg11.dtd"><svg width="100%" height="100%" viewBox="0 0 5 4" version="1.1" xmlns="http://www.w3.org/2000/svg" xmlns:xlink="http://www.w3.org/1999/xlink" xml:space="preserve" style="fill-rule:evenodd;clip-rule:evenodd;stroke-linejoin:round;stroke-miterlimit:1.41421;"><path id="eye" d="M2.385,3.578c-1.59,0 -2.385,-1.789 -2.385,-1.789c0,0 0.795,-1.789 2.385,-1.789c1.69,0 2.386,1.789 2.386,1.789c0,0 -0.796,1.789 -2.386,1.789Zm0,-3.379c-1.258,0 -1.991,1.255 -2.164,1.59c0.174,0.334 0.91,1.59 2.164,1.59c1.264,0 1.998,-1.267 2.166,-1.594c-0.152,-0.327 -0.827,-1.586 -2.166,-1.586Zm0,2.186c-0.329,0 -0.596,-0.267 -0.596,-0.596c0,-0.048 0.006,-0.094 0.017,-0.138c0.038,0.024 0.083,0.039 0.132,0.039c0.137,0 0.249,-0.112 0.249,-0.249c0,-0.071 -0.031,-0.135 -0.079,-0.18c0.083,-0.044 0.177,-0.068 0.277,-0.068c0.33,0 0.597,0.267 0.597,0.596c0,0.329 -0.267,0.596 -0.597,0.596Zm0,-0.994c-0.001,0 -0.002,0 -0.003,0c0.002,0.017 0.003,0.033 0.003,0.05c0,0.226 -0.168,0.413 -0.386,0.443c0.043,0.174 0.2,0.303 0.386,0.303c0.219,0 0.398,-0.179 0.398,-0.398c0,-0.219 -0.179,-0.398 -0.398,-0.398Z" /></svg>