<?xml version="1.0" encoding="UTF-8" standalone="no"?><!DOCTYPE svg PUBLIC "-//W3C//DTD SVG 1.1//EN" "http://www.w3.org/Graphics/SVG/1.1/DTD/svg11.dtd"><svg width="100%" height="100%" viewBox="0 0 80 80" version="1.1" xmlns="http://www.w3.org/2000/svg" xmlns:xlink="http://www.w3.org/1999/xlink" xml:space="preserve" style="fill-rule:evenodd;clip-rule:evenodd;stroke-linejoin:round;stroke-miterlimit:1.41421;"><circle id="椭圆-2-拷贝" cx="40" cy="40" r="40" style="fill:#11a9e9;"/><path id="形状-9" d="M61.63,32.396c-2.809,-8.911 -11.184,-15.396 -21.13,-15.396c-9.946,0 -18.321,6.485 -21.13,15.396c-2.652,2.001 -4.37,5.149 -4.37,8.7c0,4.742 3.057,8.768 7.325,10.291c3.424,4.864 8.777,8.289 14.975,9.179c0.382,1.399 1.663,2.434 3.2,2.434c1.836,0 3.325,-1.471 3.325,-3.285c0,-1.815 -1.489,-3.286 -3.325,-3.286c-1.348,0 -2.502,0.795 -3.024,1.934c-4.675,-0.708 -8.805,-3.007 -11.817,-6.337c0.144,0.006 0.285,0.022 0.429,0.022c2.448,0 4.434,-1.962 4.434,-4.381l0,-13.142c0,-2.42 -1.986,-4.381 -4.434,-4.381c-1.32,0 -2.581,0.239 -3.754,0.657c3.127,-6.842 10.073,-11.61 18.166,-11.61c8.093,0 15.039,4.769 18.168,11.61c-1.173,-0.418 -2.435,-0.657 -3.755,-0.657c-2.448,0 -4.434,1.961 -4.434,4.381l0,13.142c0,2.419 1.986,4.381 4.434,4.381c6.124,0 11.087,-4.903 11.087,-10.952c0,-3.551 -1.718,-6.699 -4.37,-8.7l0,0Zm-21.13,26.223c0.612,0 1.109,0.49 1.109,1.096c0,0.604 -0.497,1.094 -1.109,1.094c-0.612,0 -1.109,-0.49 -1.109,-1.094c0,-0.606 0.497,-1.096 1.109,-1.096l0,0Zm-12.195,-24.094l0,13.142c0,1.21 -0.992,2.19 -2.217,2.19c-4.9,0 -8.87,-3.921 -8.87,-8.761c0,-4.84 3.971,-8.762 8.87,-8.762c1.224,0 2.217,0.98 2.217,2.191l0,0Zm26.608,15.331c-1.225,0 -2.217,-0.98 -2.217,-2.19l0,-13.142c0,-1.21 0.992,-2.19 2.217,-2.19c4.9,0 8.87,3.922 8.87,8.762c0,4.84 -3.971,8.76 -8.87,8.76l0,0Z" style="fill:#fff;"/></svg>