<?xml version="1.0" standalone="no"?><!DOCTYPE svg PUBLIC "-//W3C//DTD SVG 1.1//EN" "http://www.w3.org/Graphics/SVG/1.1/DTD/svg11.dtd"><svg t="1500686083750" class="icon" style="" viewBox="0 0 1024 1024" version="1.1" xmlns="http://www.w3.org/2000/svg" p-id="5556" xmlns:xlink="http://www.w3.org/1999/xlink" width="64" height="64"><defs><style type="text/css"></style></defs><path d="M511.637545 64.184299c-246.843394 0-446.962804 200.099957-446.962805 446.962805 0 246.821892 200.119411 446.96178 446.962805 446.96178S958.599325 757.968995 958.599325 511.147104c0-246.862847-200.118387-446.962804-446.96178-446.962805z m89.896107 291.496057h87.449022v81.301614h-87.449022V355.680356z m20.610812 114.777545v81.30059h-87.411138V470.457901h87.411138z m-154.251396-114.777545h87.450046v81.301614h-87.450046V355.680356z m20.647671 114.777545v81.30059h-87.447997V470.457901h87.447997z m-154.250372-114.777545h87.449022v81.301614h-87.449022V355.680356z m-133.564816 0h87.449021v81.301614H200.725551V355.680356z m66.78292 114.777545h87.467452v81.30059h-87.467452V470.457901z m458.328955 196.152879H297.398755V585.235446h428.437647v81.375334z m29.946598-114.852289h-87.467451V470.457901h87.467451v81.30059z m66.764491-114.776521h-87.449022V355.680356h87.449022v81.301614z" p-id="5557" fill="#aaaaaa"></path></svg>