<?xml version="1.0" encoding="UTF-8" standalone="no"?>
<!DOCTYPE svg PUBLIC "-//W3C//DTD SVG 1.1//EN" "http://www.w3.org/Graphics/SVG/1.1/DTD/svg11.dtd">
<svg width="100%" height="100%" viewBox="0 0 34 41" version="1.1" xmlns="http://www.w3.org/2000/svg" xmlns:xlink="http://www.w3.org/1999/xlink" xml:space="preserve" style="fill-rule:evenodd;clip-rule:evenodd;stroke-linejoin:round;stroke-miterlimit:1.41421;">
    <g transform="matrix(1,0,0,1,-608,-1252)">
        <path id="形状-5" d="M625.003,1292L611.755,1292C609.754,1292 608,1290.29 608,1288.33C608,1283.86 612.617,1277.25 617.318,1275C617.89,1274.72 618.584,1274.97 618.858,1275.55C619.131,1276.13 618.886,1276.82 618.309,1277.1C614.074,1279.13 610,1284.74 610,1288C610,1288.68 611.27,1290 612,1290L625,1290C625.64,1290 626.151,1290.19 626.151,1290.84C626.156,1291.48 625.638,1292 625.003,1292L625.003,1292ZM638.244,1292L625.003,1292C624.362,1292 623.848,1291.48 623.848,1290.84C623.848,1290.19 624.36,1290 625,1290L638,1290C638.732,1290 640,1288.68 640,1288C640,1284.74 635.922,1279.13 631.691,1277.1C631.115,1276.82 630.868,1276.13 631.143,1275.55C631.416,1274.97 632.104,1274.72 632.682,1275C637.383,1277.25 642,1283.85 642,1288.33C642,1290.29 640.244,1292 638.244,1292L638.244,1292ZM625.499,1275C619.157,1275 614,1269.84 614,1263.5C614,1257.16 619.157,1252 625.499,1252C631.842,1252 637,1257.16 637,1263.5C637,1269.84 631.837,1275 625.499,1275L625.499,1275ZM625.501,1254C620.261,1254 616,1258.26 616,1263.5C616,1268.74 620.261,1273 625.501,1273C630.738,1273 635,1268.74 635,1263.5C635,1258.26 630.738,1254 625.501,1254L625.501,1254Z"/>
    </g>
</svg>
