<?xml version="1.0" encoding="UTF-8" standalone="no"?><!DOCTYPE svg PUBLIC "-//W3C//DTD SVG 1.1//EN" "http://www.w3.org/Graphics/SVG/1.1/DTD/svg11.dtd"><svg width="100%" height="100%" viewBox="0 0 48 49" version="1.1" xmlns="http://www.w3.org/2000/svg" xmlns:xlink="http://www.w3.org/1999/xlink" xml:space="preserve" style="fill-rule:evenodd;clip-rule:evenodd;stroke-linejoin:round;stroke-miterlimit:1.41421;"><path id="形状-10" d="M38.348,31.317c-0.201,0 -0.403,0.152 -0.556,0.457l-1.995,3.968c-0.306,0.609 -1.117,1.187 -1.801,1.284l-4.461,0.636c-0.684,0.098 -0.839,0.566 -0.344,1.039l3.228,3.09c0.496,0.473 0.805,1.408 0.688,2.077l-0.762,4.362c-0.085,0.485 0.105,0.77 0.448,0.77c0.131,0 0.284,-0.041 0.452,-0.128l3.99,-2.059c0.306,-0.158 0.71,-0.237 1.113,-0.237c0.403,0 0.807,0.079 1.113,0.237l3.99,2.059c0.168,0.087 0.321,0.128 0.452,0.128c0.343,0 0.533,-0.285 0.448,-0.77l-0.762,-4.362c-0.117,-0.669 0.193,-1.604 0.688,-2.077l3.228,-3.09c0.495,-0.473 0.34,-0.941 -0.344,-1.039l-4.461,-0.636c-0.684,-0.097 -1.495,-0.675 -1.801,-1.284l-1.995,-3.968c-0.152,-0.305 -0.354,-0.457 -0.556,-0.457l0,0Zm-7.015,-31.317c0.776,0.001 1.405,0.459 1.624,1.073c0.059,0.058 0.111,0.069 0.174,0.135l9.964,10.632c0.13,0.139 0.174,0.262 0.259,0.397c0.319,0.265 0.646,0.323 0.646,0.763l0,15c0,0.8 -0.181,1 -1,1c0,0 -1,0.311 -1,-1l0,-14l-7.917,-0.024c-1.63,0 -2.964,-1.31 -2.964,-2.91l-0.119,-9.066l-26,0c-1.263,0 -3,1.76 -3,3l0,38c0,1.241 1.736,3 3,3l13,0c0.031,-0.006 1.991,-0.344 2,1c0.002,0.825 -1.05,1 -2,1l-13,0c-2.949,0 -5,-2.009 -5,-4.902l0,-37.849c0,-2.895 2.4,-5.248 5.347,-5.249l25.986,0Zm-23.333,29l26,0c0.693,0 0.965,0.363 0.965,-0.677c0,-1.041 -0.272,-1.323 -0.965,-1.323l-26,0c-0.656,-0.086 -1.089,0.003 -0.947,1.076c0.138,1.047 0.947,0.924 0.947,0.924Zm26,-9c0.693,0 1,-0.036 1,1c0,1.04 -0.306,1 -1,1l-26,0c0.041,-0.047 -1.036,0.084 -1,-1c0.034,-1.035 0.303,-1 1,-1l26,0Zm-12,-7c0.693,0 1,-0.036 1,1c0,1.041 -0.307,1 -1,1l-14,0c0.041,-0.047 -1.036,0.084 -1,-1c0.034,-1.035 0.303,-1 1,-1l14,0Z" /></svg>