<?xml version="1.0" encoding="UTF-8" standalone="no"?><!DOCTYPE svg PUBLIC "-//W3C//DTD SVG 1.1//EN" "http://www.w3.org/Graphics/SVG/1.1/DTD/svg11.dtd"><svg width="100%" height="100%" viewBox="0 0 56 44" version="1.1" xmlns="http://www.w3.org/2000/svg" xmlns:xlink="http://www.w3.org/1999/xlink" xml:space="preserve" style="fill-rule:evenodd;clip-rule:evenodd;stroke-linejoin:round;stroke-miterlimit:1.41421;"><g><path d="M0.151,36.635c0.052,-0.637 0.138,-0.997 0.138,-0.997c0.541,-1.727 2.157,-2.98 4.067,-2.98c2.352,0 4.259,1.902 4.259,4.248c0,2.346 -1.907,4.248 -4.259,4.248c-0.689,0 -1.34,-0.163 -1.916,-0.453l0,2.848l-2.329,0c0,0 0,-4.821 0,-5.911c0,-0.376 0.017,-0.724 0.04,-1.003l2.347,0c-0.007,0.066 -0.012,0.151 -0.012,0.219c0,1.058 0.861,1.917 1.922,1.917c1.061,0 1.922,-0.859 1.922,-1.917c0,-1.058 -0.861,-1.917 -1.922,-1.917c-0.987,0 -1.801,0.743 -1.91,1.698l-2.347,0Z"/><path id="I" d="M14.943,36.855l0,7.096l-2.363,0l0,-7.096l2.363,0Zm-1.181,-3.281c0.652,0 1.181,0.53 1.181,1.182c0,0.653 -0.529,1.183 -1.181,1.183c-0.653,0 -1.182,-0.53 -1.182,-1.183c0,-0.652 0.529,-1.182 1.182,-1.182Z"/><path id="N" d="M25.084,40.284c0,-1.003 -0.234,-1.786 -0.702,-2.349c-0.598,-0.72 -1.392,-1.08 -2.383,-1.08c-0.866,0 -1.598,0.31 -2.195,0.93c-0.597,0.621 -0.896,1.384 -0.896,2.29l0,3.876l2.287,0l0,-4.12c0,-0.4 0.473,-0.633 0.797,-0.633c0.329,0 0.804,0.233 0.804,0.633l0,4.12l2.288,0l0,-3.667l0,0Z" style="fill-rule:nonzero;"/><path id="E" d="M43.382,39.602l1.668,0c-0.282,-0.454 -0.785,-0.757 -1.358,-0.757c-0.883,0 -1.6,0.717 -1.6,1.601c0,0.884 0.717,1.601 1.6,1.601c0.387,0 0.743,-0.138 1.02,-0.368l1.753,0.877c-0.648,0.848 -1.669,1.395 -2.817,1.395c-1.956,0 -3.545,-1.59 -3.545,-3.548c0,-1.958 1.589,-3.548 3.545,-3.548c1.957,0 3.546,1.59 3.546,3.548c0,0.141 -0.009,0.281 -0.025,0.419l-3.787,0l0,-1.22l0,0Z"/><path id="R" d="M54.055,36.855c-0.897,0 -1.63,0.299 -2.168,0.884c-0.537,0.585 -0.806,1.37 -0.806,2.353l0.001,3.859l2.363,0l0,-3.663c0,-0.71 0.423,-1.075 0.888,-1.075c0.145,0 1.247,0.007 1.247,0.007l0,-2.365l-1.525,0Z" style="fill-rule:nonzero;"/><path id="聘" d="M51.616,19.763l0,-14.498c0,-1.155 -0.719,-1.755 -2.059,-1.755l-6.252,0l0,16.253l-3.964,0l0,-15.414c0,-2.868 1.497,-4.272 4.55,-4.272l6.925,0c3.164,0 4.764,1.4 4.764,4.12l0,15.566l-3.964,0l4.04,6.562l-4.727,0l-1.677,-3.39c-0.335,-0.746 -0.763,-1.155 -1.284,-1.23c-2.16,2.906 -4.933,4.452 -8.321,4.639l0,-4.08c1.899,-0.484 3.193,-1.173 3.881,-2.068c0.689,-0.894 1.201,-2.309 1.536,-4.247l-0.005,-10.608l4.498,0l-0.026,10.608c-0.261,1.751 -0.671,3.031 -1.118,3.814l3.203,0Zm-18.832,0.61l1.906,0l0,-12.514c0,0 0.147,-1.899 -0.534,-1.831c-0.035,0.004 -0.791,0 -0.915,0c-0.575,0 -0.457,1.831 -0.457,1.831l0,12.514Zm5.337,2.594l-8.615,0l0,-15.566c-0.038,-2.607 0.933,-3.967 3.278,-3.967l1.83,0c2.345,0 3.507,1.32 3.507,3.891l0,15.642Z" style="fill-rule:nonzero;"/><path id="呗" d="M11.741,20.297l0,3.586l-0.915,0l0,2.518l-3.736,0l0,-2.518l-7.014,0l0,-3.586l0.763,0l0,-16.253l-0.839,0l0,-3.586l11.513,0l0,3.586l-0.687,0l0,16.253l0.915,0Zm-7.319,0l2.668,0l0,-1.603c0,-1.006 -0.384,-1.449 -1.296,-1.449l-1.372,0l0,3.052Zm0,-6.791l2.668,0l0,-1.374c0,-0.968 -0.384,-1.449 -1.296,-1.449l-1.372,0l0,2.823Zm0,-6.41l2.668,0l0,-1.602c0,-0.969 -0.384,-1.374 -1.296,-1.374l-1.372,0l0,2.976Zm7.929,-3.205c-0.037,-1.9 0.788,-2.899 2.669,-2.899l2.058,0l0,-0.992l3.965,0l0,0.992l2.058,0c1.88,0 2.839,0.999 2.821,2.899l0,8.394l-13.571,0l0,-8.394l0,0Zm4.727,4.808c0,-0.429 -0.243,-0.687 -0.839,-0.687l-1.219,0l0,1.297l2.058,0l0,-0.61l0,0Zm3.965,0.61l2.134,0l0,-0.687c0,-0.391 -0.3,-0.61 -0.914,-0.61l-1.22,0l0,1.297Zm-3.965,-4.654c0,-0.448 -0.243,-0.611 -0.839,-0.611l-1.219,0l0,1.374l2.058,0l0,-0.763l0,0Zm3.965,0.763l2.134,0l0,-0.763c0,-0.448 -0.3,-0.611 -0.914,-0.611l-1.22,0l0,1.374Zm5.337,11.14l-7.32,0l-1.219,1.602l5.336,0c1.769,0 2.593,0.866 2.593,2.747l0,2.9c-0.019,1.751 -0.843,2.594 -2.593,2.594l-10.826,0l0,-3.205l10.75,0l0,-1.907l-7.853,0c-1.926,0.229 -2.966,-1.332 -2.516,-2.671c0.105,-0.312 1.601,-2.06 1.601,-2.06l-2.363,0l0,-3.129l14.41,0l0,3.129Z" style="fill-rule:nonzero;"/><path d="M36.139,40.379c0,0.007 0,0.017 0,0.024c0,1.958 -1.589,3.548 -3.546,3.548c-1.943,0 -3.524,-1.569 -3.545,-3.51l0,0l0,-6.867l2.364,0l0,3.483c0.37,-0.131 0.767,-0.202 1.181,-0.202c1.949,0 3.533,1.577 3.546,3.524l-1.904,0c-0.036,-0.853 -0.738,-1.534 -1.598,-1.534c-0.883,0 -1.6,0.717 -1.6,1.601c0,0.884 0.717,1.601 1.6,1.601c0.882,0 1.599,-0.717 1.599,-1.601c0,-0.022 -0.001,-0.046 -0.001,-0.067l1.904,0Z"/></g></svg>