<?xml version="1.0" encoding="UTF-8" standalone="no"?><!DOCTYPE svg PUBLIC "-//W3C//DTD SVG 1.1//EN" "http://www.w3.org/Graphics/SVG/1.1/DTD/svg11.dtd"><svg width="100%" height="100%" viewBox="0 0 36 36" version="1.1" xmlns="http://www.w3.org/2000/svg" xmlns:xlink="http://www.w3.org/1999/xlink" xml:space="preserve" style="fill-rule:evenodd;clip-rule:evenodd;stroke-linejoin:round;stroke-miterlimit:1.41421;"><path id="形状-3" d="M25.512,24.518c0,0 -1.348,-0.045 -1.352,0.927l0,1.854c0,1.221 -0.953,1.701 -2.16,1.701l-15,0c-1.209,0 -2,-0.779 -2,-2l0,-17c0,-1.221 0.791,-2 2,-2l15,0c1.207,0 2.16,0.48 2.16,1.7l0,3.709c0,0 0.138,0.897 0.921,0.927c0.602,0 0.919,-0.324 0.919,-0.927c0,-1.473 0,-5.563 0,-5.563c0,-1.213 -1.37,-1.846 -2.58,-1.846l-18.232,0c-1.207,0 -2.188,0.987 -2.188,2.2l0,20.599c0,1.213 0.981,2.201 2.188,2.201l18.972,0c1.209,0 1.84,-0.633 1.84,-1.847l0,-3.708c-0.002,-0.603 0.124,-0.927 -0.488,-0.927l0,0Zm9.053,-12.323c-0.435,-0.429 -1.143,-0.429 -1.578,0l-8.151,8.065l-4.412,-4.364c-0.435,-0.43 -1.139,-0.43 -1.574,0c-0.435,0.429 -0.435,1.13 0,1.56l5.193,5.133c0.003,0 0.003,0.007 0.005,0.007c0.218,0.219 0.504,0.324 0.79,0.324c0.286,0 0.571,-0.105 0.788,-0.324c0.004,0 0.004,-0.007 0.008,-0.007l8.931,-8.834c0.435,-0.429 0.435,-1.13 0,-1.56l0,0Zm-27.565,6.309c0,0.821 0.671,1.496 1.499,1.496c0.83,0 1.501,-0.675 1.501,-1.496c0,-0.829 -0.671,-1.504 -1.501,-1.504c-0.828,0 -1.499,0.674 -1.499,1.504l0,0Zm4,0c0,0.821 0.671,1.496 1.499,1.496c0.83,0 1.501,-0.675 1.501,-1.496c0,-0.829 -0.671,-1.504 -1.501,-1.504c-0.828,0 -1.499,0.674 -1.499,1.504l0,0Zm4,0c0,0.821 0.671,1.496 1.501,1.496c0.828,0 1.499,-0.675 1.499,-1.496c0,-0.829 -0.671,-1.504 -1.499,-1.504c-0.83,0 -1.246,0.735 -1.246,1.504l-0.255,0Z" /></svg>