<?xml version="1.0" encoding="UTF-8" standalone="no"?><!DOCTYPE svg PUBLIC "-//W3C//DTD SVG 1.1//EN" "http://www.w3.org/Graphics/SVG/1.1/DTD/svg11.dtd"><svg width="100%" height="100%" viewBox="0 0 36 36" version="1.1" xmlns="http://www.w3.org/2000/svg" xmlns:xlink="http://www.w3.org/1999/xlink" xml:space="preserve" style="fill-rule:evenodd;clip-rule:evenodd;stroke-linejoin:round;stroke-miterlimit:1.41421;"><path id="形状-4" d="M22,34l-15,0c-2.209,0 -4,-1.791 -4,-4l0,-24c0,-2.21 1.791,-4 4,-4l15,0c2.209,0 4,1.79 4,4l0,24c0,2.209 -1.791,4 -4,4l0,0Zm2,-28c0,-1.104 -0.896,-2 -2,-2l-15,0c-1.104,0 -2,0.896 -2,2l0,1l19,0l0,-1l0,0Zm0,3l-19,0l0,15.969l19,0l0,-15.969l0,0Zm0,17.969l-19,0l0,3.031c0,1.105 0.896,2 2,2l15,0c1.104,0 2,-0.895 2,-2l0,-3.031l0,0Zm-9.5,4.031c-0.828,0 -1.5,-0.672 -1.5,-1.5c0,-0.829 0.672,-1.5 1.5,-1.5c0.828,0 1.5,0.671 1.5,1.5c0,0.828 -0.672,1.5 -1.5,1.5l0,0Z" /></svg>